<?xml version="1.0" encoding="UTF-8"?>
<svg width="161px" height="88px" viewBox="0 0 161 88" version="1.1" xmlns="http://www.w3.org/2000/svg" xmlns:xlink="http://www.w3.org/1999/xlink">
    <!-- Generator: Sketch 41.2 (35397) - http://www.bohemiancoding.com/sketch -->
    <title>group-add</title>
    <desc>Created with Sketch.</desc>
    <defs>
        <linearGradient x1="50%" y1="0%" x2="50%" y2="100%" id="linearGradient-1">
            <stop stop-color="#C12A2A" offset="0%"></stop>
            <stop stop-color="#741B1B" offset="100%"></stop>
        </linearGradient>
    </defs>
    <g id="Page-1" stroke="none" stroke-width="1" fill="none" fill-rule="evenodd">
        <g id="2" transform="translate(-287.000000, -841.000000)" fill="url(#linearGradient-1)">
            <g id="LT" transform="translate(46.000000, 798.000000)">
                <g id="group-add" transform="translate(241.000000, 43.000000)">
                    <path d="M53.434144,33.5416667 L33.39634,33.5416667 L33.39634,13.4166667 L20.037804,13.4166667 L20.037804,33.5416667 L0,33.5416667 L0,46.9583333 L20.037804,46.9583333 L20.037804,67.0833333 L33.39634,67.0833333 L33.39634,46.9583333 L53.434144,46.9583333 L53.434144,33.5416667 L53.434144,33.5416667 Z M120.226824,40.25 C131.58158,40.25 140.264628,31.5291667 140.264628,20.125 C140.264628,8.72083333 131.58158,0 120.226824,0 C118.223044,0 116.219263,0.670833333 114.215483,0.670833333 C118.223044,6.70833333 120.226824,12.7458333 120.226824,20.125 C120.226824,27.5041667 118.223044,33.5416667 114.215483,39.5791667 C116.219263,39.5791667 118.223044,40.25 120.226824,40.25 L120.226824,40.25 Z M86.8304839,40.25 C98.1852395,40.25 106.868288,31.5291667 106.868288,20.125 C106.868288,8.72083333 98.1852395,0 86.8304839,0 C75.4757283,0 66.79268,8.72083333 66.79268,20.125 C66.79268,31.5291667 75.4757283,40.25 86.8304839,40.25 L86.8304839,40.25 Z M130.913653,55.0083333 C136.257067,59.7041667 140.264628,66.4125 140.264628,73.7916667 L140.264628,87.2083333 L160.302432,87.2083333 L160.302432,73.7916667 C160.302432,63.7291667 144.272189,57.0208333 130.913653,55.0083333 L130.913653,55.0083333 Z M86.8304839,53.6666667 C73.4719479,53.6666667 46.754876,60.375 46.754876,73.7916667 L46.754876,87.2083333 L126.906092,87.2083333 L126.906092,73.7916667 C126.906092,60.375 100.18902,53.6666667 86.8304839,53.6666667 L86.8304839,53.6666667 Z" id="Shape"></path>
                </g>
            </g>
        </g>
    </g>
</svg>